<svg xmlns="http://www.w3.org/2000/svg" viewBox="0 0 240 240"><rect width="240" height="240" fill="#778667"/><g shape-rendering="crispEdges"><rect x="34" y="41" width="3" height="1" fill="#cfba8b"/><rect x="33" y="42" width="11" height="1" fill="#cfba8b"/><rect x="33" y="43" width="16" height="1" fill="#cfba8b"/><rect x="32" y="44" width="18" height="1" fill="#cfba8b"/><rect x="32" y="45" width="20" height="1" fill="#cfba8b"/><rect x="31" y="46" width="23" height="1" fill="#cfba8b"/><rect x="31" y="47" width="24" height="1" fill="#cfba8b"/><rect x="30" y="48" width="27" height="1" fill="#cfba8b"/><rect x="29" y="49" width="29" height="1" fill="#cfba8b"/><rect x="29" y="50" width="29" height="1" fill="#cfba8b"/><rect x="28" y="51" width="31" height="1" fill="#cfba8b"/><rect x="28" y="52" width="31" height="1" fill="#cfba8b"/><rect x="27" y="53" width="32" height="1" fill="#cfba8b"/><rect x="27" y="54" width="32" height="1" fill="#cfba8b"/><rect x="26" y="55" width="34" height="1" fill="#cfba8b"/><rect x="26" y="56" width="34" height="1" fill="#cfba8b"/><rect x="25" y="57" width="35" height="1" fill="#cfba8b"/><rect x="25" y="58" width="35" height="1" fill="#cfba8b"/><rect x="25" y="59" width="36" height="1" fill="#cfba8b"/><rect x="26" y="60" width="35" height="1" fill="#cfba8b"/><rect x="26" y="61" width="35" height="1" fill="#cfba8b"/><rect x="26" y="62" width="35" height="1" fill="#cfba8b"/><rect x="26" y="63" width="36" height="1" fill="#cfba8b"/><rect x="27" y="64" width="35" height="1" fill="#cfba8b"/><rect x="27" y="65" width="35" height="1" fill="#cfba8b"/><rect x="27" y="66" width="35" height="1" fill="#cfba8b"/><rect x="27" y="67" width="36" height="1" fill="#cfba8b"/><rect x="28" y="68" width="35" height="1" fill="#cfba8b"/><rect x="28" y="69" width="35" height="1" fill="#cfba8b"/><rect x="28" y="70" width="34" height="1" fill="#cfba8b"/><rect x="28" y="71" width="34" height="1" fill="#cfba8b"/><rect x="28" y="72" width="33" height="1" fill="#cfba8b"/><rect x="29" y="73" width="32" height="1" fill="#cfba8b"/><rect x="29" y="74" width="31" height="1" fill="#cfba8b"/><rect x="29" y="75" width="30" height="1" fill="#cfba8b"/><rect x="29" y="76" width="30" height="1" fill="#cfba8b"/><rect x="30" y="77" width="28" height="1" fill="#cfba8b"/><rect x="30" y="78" width="28" height="1" fill="#cfba8b"/><rect x="30" y="79" width="27" height="1" fill="#cfba8b"/><rect x="30" y="80" width="23" height="1" fill="#cfba8b"/><rect x="31" y="81" width="13" height="1" fill="#cfba8b"/><rect x="31" y="82" width="4" height="1" fill="#cfba8b"/><rect x="36" y="160" width="7" height="1" fill="#cfba8b"/><rect x="35" y="161" width="21" height="1" fill="#cfba8b"/><rect x="33" y="162" width="30" height="1" fill="#cfba8b"/><rect x="32" y="163" width="32" height="1" fill="#cfba8b"/><rect x="30" y="164" width="35" height="1" fill="#cfba8b"/><rect x="29" y="165" width="37" height="1" fill="#cfba8b"/><rect x="27" y="166" width="40" height="1" fill="#cfba8b"/><rect x="26" y="167" width="42" height="1" fill="#cfba8b"/><rect x="25" y="168" width="44" height="1" fill="#cfba8b"/><rect x="25" y="169" width="45" height="1" fill="#cfba8b"/><rect x="24" y="170" width="47" height="1" fill="#cfba8b"/><rect x="24" y="171" width="48" height="1" fill="#cfba8b"/><rect x="24" y="172" width="49" height="1" fill="#cfba8b"/><rect x="24" y="173" width="50" height="1" fill="#cfba8b"/><rect x="23" y="174" width="52" height="1" fill="#cfba8b"/><rect x="23" y="175" width="52" height="1" fill="#cfba8b"/><rect x="23" y="176" width="52" height="1" fill="#cfba8b"/><rect x="23" y="177" width="53" height="1" fill="#cfba8b"/><rect x="22" y="178" width="54" height="1" fill="#cfba8b"/><rect x="22" y="179" width="54" height="1" fill="#cfba8b"/><rect x="22" y="180" width="54" height="1" fill="#cfba8b"/><rect x="22" y="181" width="55" height="1" fill="#cfba8b"/><rect x="21" y="182" width="56" height="1" fill="#cfba8b"/><rect x="21" y="183" width="56" height="1" fill="#cfba8b"/><rect x="21" y="184" width="56" height="1" fill="#cfba8b"/><rect x="21" y="185" width="56" height="1" fill="#cfba8b"/><rect x="20" y="186" width="58" height="1" fill="#cfba8b"/><rect x="20" y="187" width="58" height="1" fill="#cfba8b"/><rect x="20" y="188" width="58" height="1" fill="#cfba8b"/><rect x="20" y="189" width="58" height="1" fill="#cfba8b"/><rect x="20" y="190" width="59" height="1" fill="#cfba8b"/><rect x="20" y="191" width="59" height="1" fill="#cfba8b"/><rect x="20" y="192" width="59" height="1" fill="#cfba8b"/><rect x="20" y="193" width="59" height="1" fill="#cfba8b"/><rect x="20" y="194" width="60" height="1" fill="#cfba8b"/><rect x="20" y="195" width="60" height="1" fill="#cfba8b"/><rect x="20" y="196" width="60" height="1" fill="#cfba8b"/><rect x="20" y="197" width="61" height="1" fill="#cfba8b"/><rect x="21" y="198" width="61" height="1" fill="#cfba8b"/><rect x="21" y="199" width="61" height="1" fill="#cfba8b"/><rect x="21" y="200" width="62" height="1" fill="#cfba8b"/><rect x="21" y="201" width="62" height="1" fill="#cfba8b"/><rect x="21" y="202" width="63" height="1" fill="#cfba8b"/><rect x="21" y="203" width="64" height="1" fill="#cfba8b"/><rect x="21" y="204" width="64" height="1" fill="#cfba8b"/><rect x="21" y="205" width="65" height="1" fill="#cfba8b"/><rect x="21" y="206" width="65" height="1" fill="#cfba8b"/><rect x="21" y="207" width="66" height="1" fill="#cfba8b"/><rect x="21" y="208" width="67" height="1" fill="#cfba8b"/><rect x="21" y="209" width="69" height="1" fill="#cfba8b"/><rect x="21" y="210" width="72" height="1" fill="#cfba8b"/><rect x="21" y="211" width="75" height="1" fill="#cfba8b"/><rect x="21" y="212" width="79" height="1" fill="#cfba8b"/><rect x="21" y="213" width="82" height="1" fill="#cfba8b"/><rect x="21" y="214" width="84" height="1" fill="#cfba8b"/><rect x="21" y="215" width="84" height="1" fill="#cfba8b"/><rect x="21" y="216" width="139" height="1" fill="#cfba8b"/><rect x="22" y="217" width="70" height="1" fill="#cfba8b"/><rect x="92" y="217" width="31" height="1" fill="#a4b57c"/><rect x="123" y="217" width="27" height="1" fill="#cfba8b"/><rect x="150" y="217" width="9" height="1" fill="#a4b57c"/><rect x="159" y="217" width="1" height="1" fill="#cfba8b"/><rect x="22" y="218" width="60" height="1" fill="#cfba8b"/><rect x="82" y="218" width="77" height="1" fill="#a4b57c"/><rect x="159" y="218" width="1" height="1" fill="#cfba8b"/><rect x="22" y="219" width="60" height="1" fill="#cfba8b"/><rect x="82" y="219" width="77" height="1" fill="#a4b57c"/><rect x="159" y="219" width="1" height="1" fill="#cfba8b"/><rect x="22" y="220" width="24" height="1" fill="#cfba8b"/><rect x="46" y="220" width="27" height="1" fill="#a4b57c"/><rect x="73" y="220" width="9" height="1" fill="#cfba8b"/><rect x="82" y="220" width="77" height="1" fill="#a4b57c"/><rect x="159" y="220" width="1" height="1" fill="#cfba8b"/><rect x="22" y="221" width="21" height="1" fill="#cfba8b"/><rect x="43" y="221" width="116" height="1" fill="#a4b57c"/><rect x="159" y="221" width="1" height="1" fill="#cfba8b"/><rect x="22" y="222" width="18" height="1" fill="#cfba8b"/><rect x="40" y="222" width="119" height="1" fill="#a4b57c"/><rect x="159" y="222" width="1" height="1" fill="#cfba8b"/><rect x="22" y="223" width="15" height="1" fill="#cfba8b"/><rect x="37" y="223" width="122" height="1" fill="#a4b57c"/><rect x="159" y="223" width="1" height="1" fill="#cfba8b"/><rect x="22" y="224" width="12" height="1" fill="#cfba8b"/><rect x="34" y="224" width="125" height="1" fill="#a4b57c"/><rect x="159" y="224" width="1" height="1" fill="#cfba8b"/><rect x="22" y="225" width="11" height="1" fill="#cfba8b"/><rect x="33" y="225" width="126" height="1" fill="#a4b57c"/><rect x="159" y="225" width="1" height="1" fill="#cfba8b"/><rect x="22" y="226" width="10" height="1" fill="#cfba8b"/><rect x="32" y="226" width="127" height="1" fill="#a4b57c"/><rect x="159" y="226" width="1" height="1" fill="#cfba8b"/><rect x="22" y="227" width="9" height="1" fill="#cfba8b"/><rect x="31" y="227" width="128" height="1" fill="#a4b57c"/><rect x="159" y="227" width="1" height="1" fill="#cfba8b"/><rect x="22" y="228" width="9" height="1" fill="#cfba8b"/><rect x="31" y="228" width="128" height="1" fill="#a4b57c"/><rect x="159" y="228" width="1" height="1" fill="#cfba8b"/><rect x="22" y="229" width="8" height="1" fill="#cfba8b"/><rect x="30" y="229" width="129" height="1" fill="#a4b57c"/><rect x="159" y="229" width="1" height="1" fill="#cfba8b"/><rect x="22" y="230" width="7" height="1" fill="#cfba8b"/><rect x="29" y="230" width="130" height="1" fill="#a4b57c"/><rect x="159" y="230" width="1" height="1" fill="#cfba8b"/><rect x="22" y="231" width="7" height="1" fill="#cfba8b"/><rect x="29" y="231" width="130" height="1" fill="#a4b57c"/><rect x="159" y="231" width="1" height="1" fill="#cfba8b"/><rect x="22" y="232" width="6" height="1" fill="#cfba8b"/><rect x="28" y="232" width="131" height="1" fill="#a4b57c"/><rect x="159" y="232" width="1" height="1" fill="#cfba8b"/><rect x="22" y="233" width="6" height="1" fill="#cfba8b"/><rect x="28" y="233" width="131" height="1" fill="#a4b57c"/><rect x="159" y="233" width="1" height="1" fill="#cfba8b"/><rect x="22" y="234" width="5" height="1" fill="#cfba8b"/><rect x="27" y="234" width="132" height="1" fill="#a4b57c"/><rect x="159" y="234" width="1" height="1" fill="#cfba8b"/><rect x="22" y="235" width="4" height="1" fill="#cfba8b"/><rect x="26" y="235" width="133" height="1" fill="#a4b57c"/><rect x="159" y="235" width="1" height="1" fill="#cfba8b"/><rect x="23" y="236" width="3" height="1" fill="#cfba8b"/><rect x="26" y="236" width="133" height="1" fill="#a4b57c"/><rect x="159" y="236" width="1" height="1" fill="#cfba8b"/><rect x="23" y="237" width="2" height="1" fill="#cfba8b"/><rect x="25" y="237" width="134" height="1" fill="#a4b57c"/><rect x="159" y="237" width="1" height="1" fill="#cfba8b"/><rect x="23" y="238" width="1" height="1" fill="#cfba8b"/><rect x="24" y="238" width="135" height="1" fill="#a4b57c"/><rect x="159" y="238" width="1" height="1" fill="#cfba8b"/><rect x="23" y="239" width="1" height="1" fill="#cfba8b"/><rect x="24" y="239" width="135" height="1" fill="#a4b57c"/><rect x="159" y="239" width="1" height="1" fill="#cfba8b"/></g><g fill="#696c6b"><rect x="0" y="117" width="240" height="6"/><rect x="117" y="0" width="6" height="120"/></g><rect x="34" y="41" width="1" height="1" fill="#79614c"/><rect x="35" y="41" width="1" height="1" fill="#79614c"/><rect x="36" y="41" width="1" height="1" fill="#79614c"/><rect x="33" y="42" width="1" height="1" fill="#79614c"/><rect x="37" y="42" width="1" height="1" fill="#79614c"/><rect x="38" y="42" width="1" height="1" fill="#79614c"/><rect x="39" y="42" width="1" height="1" fill="#79614c"/><rect x="40" y="42" width="1" height="1" fill="#79614c"/><rect x="41" y="42" width="1" height="1" fill="#79614c"/><rect x="42" y="42" width="1" height="1" fill="#79614c"/><rect x="43" y="42" width="1" height="1" fill="#79614c"/><rect x="33" y="43" width="1" height="1" fill="#79614c"/><rect x="44" y="43" width="1" height="1" fill="#79614c"/><rect x="45" y="43" width="1" height="1" fill="#79614c"/><rect x="46" y="43" width="1" height="1" fill="#79614c"/><rect x="47" y="43" width="1" height="1" fill="#79614c"/><rect x="48" y="43" width="1" height="1" fill="#79614c"/><rect x="32" y="44" width="1" height="1" fill="#79614c"/><rect x="49" y="44" width="1" height="1" fill="#79614c"/><rect x="32" y="45" width="1" height="1" fill="#79614c"/><rect x="50" y="45" width="1" height="1" fill="#79614c"/><rect x="51" y="45" width="1" height="1" fill="#79614c"/><rect x="31" y="46" width="1" height="1" fill="#79614c"/><rect x="52" y="46" width="1" height="1" fill="#79614c"/><rect x="53" y="46" width="1" height="1" fill="#79614c"/><rect x="31" y="47" width="1" height="1" fill="#79614c"/><rect x="54" y="47" width="1" height="1" fill="#79614c"/><rect x="30" y="48" width="1" height="1" fill="#79614c"/><rect x="55" y="48" width="1" height="1" fill="#79614c"/><rect x="56" y="48" width="1" height="1" fill="#79614c"/><rect x="29" y="49" width="1" height="1" fill="#79614c"/><rect x="57" y="49" width="1" height="1" fill="#79614c"/><rect x="29" y="50" width="1" height="1" fill="#79614c"/><rect x="57" y="50" width="1" height="1" fill="#79614c"/><rect x="28" y="51" width="1" height="1" fill="#79614c"/><rect x="58" y="51" width="1" height="1" fill="#79614c"/><rect x="28" y="52" width="1" height="1" fill="#79614c"/><rect x="58" y="52" width="1" height="1" fill="#79614c"/><rect x="27" y="53" width="1" height="1" fill="#79614c"/><rect x="58" y="53" width="1" height="1" fill="#79614c"/><rect x="27" y="54" width="1" height="1" fill="#79614c"/><rect x="58" y="54" width="1" height="1" fill="#79614c"/><rect x="26" y="55" width="1" height="1" fill="#79614c"/><rect x="59" y="55" width="1" height="1" fill="#79614c"/><rect x="26" y="56" width="1" height="1" fill="#79614c"/><rect x="59" y="56" width="1" height="1" fill="#79614c"/><rect x="25" y="57" width="1" height="1" fill="#79614c"/><rect x="59" y="57" width="1" height="1" fill="#79614c"/><rect x="25" y="58" width="1" height="1" fill="#79614c"/><rect x="59" y="58" width="1" height="1" fill="#79614c"/><rect x="25" y="59" width="1" height="1" fill="#79614c"/><rect x="60" y="59" width="1" height="1" fill="#79614c"/><rect x="26" y="60" width="1" height="1" fill="#79614c"/><rect x="60" y="60" width="1" height="1" fill="#79614c"/><rect x="26" y="61" width="1" height="1" fill="#79614c"/><rect x="60" y="61" width="1" height="1" fill="#79614c"/><rect x="26" y="62" width="1" height="1" fill="#79614c"/><rect x="60" y="62" width="1" height="1" fill="#79614c"/><rect x="26" y="63" width="1" height="1" fill="#79614c"/><rect x="61" y="63" width="1" height="1" fill="#79614c"/><rect x="27" y="64" width="1" height="1" fill="#79614c"/><rect x="61" y="64" width="1" height="1" fill="#79614c"/><rect x="27" y="65" width="1" height="1" fill="#79614c"/><rect x="61" y="65" width="1" height="1" fill="#79614c"/><rect x="27" y="66" width="1" height="1" fill="#79614c"/><rect x="61" y="66" width="1" height="1" fill="#79614c"/><rect x="27" y="67" width="1" height="1" fill="#79614c"/><rect x="62" y="67" width="1" height="1" fill="#79614c"/><rect x="28" y="68" width="1" height="1" fill="#79614c"/><rect x="62" y="68" width="1" height="1" fill="#79614c"/><rect x="28" y="69" width="1" height="1" fill="#79614c"/><rect x="62" y="69" width="1" height="1" fill="#79614c"/><rect x="28" y="70" width="1" height="1" fill="#79614c"/><rect x="61" y="70" width="1" height="1" fill="#79614c"/><rect x="28" y="71" width="1" height="1" fill="#79614c"/><rect x="61" y="71" width="1" height="1" fill="#79614c"/><rect x="28" y="72" width="1" height="1" fill="#79614c"/><rect x="60" y="72" width="1" height="1" fill="#79614c"/><rect x="29" y="73" width="1" height="1" fill="#79614c"/><rect x="60" y="73" width="1" height="1" fill="#79614c"/><rect x="29" y="74" width="1" height="1" fill="#79614c"/><rect x="59" y="74" width="1" height="1" fill="#79614c"/><rect x="29" y="75" width="1" height="1" fill="#79614c"/><rect x="58" y="75" width="1" height="1" fill="#79614c"/><rect x="29" y="76" width="1" height="1" fill="#79614c"/><rect x="58" y="76" width="1" height="1" fill="#79614c"/><rect x="30" y="77" width="1" height="1" fill="#79614c"/><rect x="57" y="77" width="1" height="1" fill="#79614c"/><rect x="30" y="78" width="1" height="1" fill="#79614c"/><rect x="57" y="78" width="1" height="1" fill="#79614c"/><rect x="30" y="79" width="1" height="1" fill="#79614c"/><rect x="53" y="79" width="1" height="1" fill="#79614c"/><rect x="54" y="79" width="1" height="1" fill="#79614c"/><rect x="55" y="79" width="1" height="1" fill="#79614c"/><rect x="56" y="79" width="1" height="1" fill="#79614c"/><rect x="30" y="80" width="1" height="1" fill="#79614c"/><rect x="44" y="80" width="1" height="1" fill="#79614c"/><rect x="45" y="80" width="1" height="1" fill="#79614c"/><rect x="46" y="80" width="1" height="1" fill="#79614c"/><rect x="47" y="80" width="1" height="1" fill="#79614c"/><rect x="48" y="80" width="1" height="1" fill="#79614c"/><rect x="49" y="80" width="1" height="1" fill="#79614c"/><rect x="50" y="80" width="1" height="1" fill="#79614c"/><rect x="51" y="80" width="1" height="1" fill="#79614c"/><rect x="52" y="80" width="1" height="1" fill="#79614c"/><rect x="31" y="81" width="1" height="1" fill="#79614c"/><rect x="35" y="81" width="1" height="1" fill="#79614c"/><rect x="36" y="81" width="1" height="1" fill="#79614c"/><rect x="37" y="81" width="1" height="1" fill="#79614c"/><rect x="38" y="81" width="1" height="1" fill="#79614c"/><rect x="39" y="81" width="1" height="1" fill="#79614c"/><rect x="40" y="81" width="1" height="1" fill="#79614c"/><rect x="41" y="81" width="1" height="1" fill="#79614c"/><rect x="42" y="81" width="1" height="1" fill="#79614c"/><rect x="43" y="81" width="1" height="1" fill="#79614c"/><rect x="31" y="82" width="1" height="1" fill="#79614c"/><rect x="32" y="82" width="1" height="1" fill="#79614c"/><rect x="33" y="82" width="1" height="1" fill="#79614c"/><rect x="34" y="82" width="1" height="1" fill="#79614c"/><rect x="36" y="160" width="1" height="1" fill="#79614c"/><rect x="37" y="160" width="1" height="1" fill="#79614c"/><rect x="38" y="160" width="1" height="1" fill="#79614c"/><rect x="39" y="160" width="1" height="1" fill="#79614c"/><rect x="40" y="160" width="1" height="1" fill="#79614c"/><rect x="41" y="160" width="1" height="1" fill="#79614c"/><rect x="42" y="160" width="1" height="1" fill="#79614c"/><rect x="35" y="161" width="1" height="1" fill="#79614c"/><rect x="43" y="161" width="1" height="1" fill="#79614c"/><rect x="44" y="161" width="1" height="1" fill="#79614c"/><rect x="45" y="161" width="1" height="1" fill="#79614c"/><rect x="46" y="161" width="1" height="1" fill="#79614c"/><rect x="47" y="161" width="1" height="1" fill="#79614c"/><rect x="48" y="161" width="1" height="1" fill="#79614c"/><rect x="49" y="161" width="1" height="1" fill="#79614c"/><rect x="50" y="161" width="1" height="1" fill="#79614c"/><rect x="51" y="161" width="1" height="1" fill="#79614c"/><rect x="52" y="161" width="1" height="1" fill="#79614c"/><rect x="53" y="161" width="1" height="1" fill="#79614c"/><rect x="54" y="161" width="1" height="1" fill="#79614c"/><rect x="55" y="161" width="1" height="1" fill="#79614c"/><rect x="33" y="162" width="1" height="1" fill="#79614c"/><rect x="34" y="162" width="1" height="1" fill="#79614c"/><rect x="56" y="162" width="1" height="1" fill="#79614c"/><rect x="57" y="162" width="1" height="1" fill="#79614c"/><rect x="58" y="162" width="1" height="1" fill="#79614c"/><rect x="59" y="162" width="1" height="1" fill="#79614c"/><rect x="60" y="162" width="1" height="1" fill="#79614c"/><rect x="61" y="162" width="1" height="1" fill="#79614c"/><rect x="62" y="162" width="1" height="1" fill="#79614c"/><rect x="32" y="163" width="1" height="1" fill="#79614c"/><rect x="63" y="163" width="1" height="1" fill="#79614c"/><rect x="30" y="164" width="1" height="1" fill="#79614c"/><rect x="31" y="164" width="1" height="1" fill="#79614c"/><rect x="64" y="164" width="1" height="1" fill="#79614c"/><rect x="29" y="165" width="1" height="1" fill="#79614c"/><rect x="65" y="165" width="1" height="1" fill="#79614c"/><rect x="27" y="166" width="1" height="1" fill="#79614c"/><rect x="28" y="166" width="1" height="1" fill="#79614c"/><rect x="66" y="166" width="1" height="1" fill="#79614c"/><rect x="26" y="167" width="1" height="1" fill="#79614c"/><rect x="67" y="167" width="1" height="1" fill="#79614c"/><rect x="25" y="168" width="1" height="1" fill="#79614c"/><rect x="68" y="168" width="1" height="1" fill="#79614c"/><rect x="25" y="169" width="1" height="1" fill="#79614c"/><rect x="69" y="169" width="1" height="1" fill="#79614c"/><rect x="24" y="170" width="1" height="1" fill="#79614c"/><rect x="70" y="170" width="1" height="1" fill="#79614c"/><rect x="24" y="171" width="1" height="1" fill="#79614c"/><rect x="71" y="171" width="1" height="1" fill="#79614c"/><rect x="24" y="172" width="1" height="1" fill="#79614c"/><rect x="72" y="172" width="1" height="1" fill="#79614c"/><rect x="24" y="173" width="1" height="1" fill="#79614c"/><rect x="73" y="173" width="1" height="1" fill="#79614c"/><rect x="23" y="174" width="1" height="1" fill="#79614c"/><rect x="74" y="174" width="1" height="1" fill="#79614c"/><rect x="23" y="175" width="1" height="1" fill="#79614c"/><rect x="74" y="175" width="1" height="1" fill="#79614c"/><rect x="23" y="176" width="1" height="1" fill="#79614c"/><rect x="74" y="176" width="1" height="1" fill="#79614c"/><rect x="23" y="177" width="1" height="1" fill="#79614c"/><rect x="75" y="177" width="1" height="1" fill="#79614c"/><rect x="22" y="178" width="1" height="1" fill="#79614c"/><rect x="75" y="178" width="1" height="1" fill="#79614c"/><rect x="22" y="179" width="1" height="1" fill="#79614c"/><rect x="75" y="179" width="1" height="1" fill="#79614c"/><rect x="22" y="180" width="1" height="1" fill="#79614c"/><rect x="75" y="180" width="1" height="1" fill="#79614c"/><rect x="22" y="181" width="1" height="1" fill="#79614c"/><rect x="76" y="181" width="1" height="1" fill="#79614c"/><rect x="21" y="182" width="1" height="1" fill="#79614c"/><rect x="76" y="182" width="1" height="1" fill="#79614c"/><rect x="21" y="183" width="1" height="1" fill="#79614c"/><rect x="76" y="183" width="1" height="1" fill="#79614c"/><rect x="21" y="184" width="1" height="1" fill="#79614c"/><rect x="76" y="184" width="1" height="1" fill="#79614c"/><rect x="21" y="185" width="1" height="1" fill="#79614c"/><rect x="76" y="185" width="1" height="1" fill="#79614c"/><rect x="20" y="186" width="1" height="1" fill="#79614c"/><rect x="77" y="186" width="1" height="1" fill="#79614c"/><rect x="20" y="187" width="1" height="1" fill="#79614c"/><rect x="77" y="187" width="1" height="1" fill="#79614c"/><rect x="20" y="188" width="1" height="1" fill="#79614c"/><rect x="77" y="188" width="1" height="1" fill="#79614c"/><rect x="20" y="189" width="1" height="1" fill="#79614c"/><rect x="77" y="189" width="1" height="1" fill="#79614c"/><rect x="20" y="190" width="1" height="1" fill="#79614c"/><rect x="78" y="190" width="1" height="1" fill="#79614c"/><rect x="20" y="191" width="1" height="1" fill="#79614c"/><rect x="78" y="191" width="1" height="1" fill="#79614c"/><rect x="20" y="192" width="1" height="1" fill="#79614c"/><rect x="78" y="192" width="1" height="1" fill="#79614c"/><rect x="20" y="193" width="1" height="1" fill="#79614c"/><rect x="78" y="193" width="1" height="1" fill="#79614c"/><rect x="20" y="194" width="1" height="1" fill="#79614c"/><rect x="79" y="194" width="1" height="1" fill="#79614c"/><rect x="20" y="195" width="1" height="1" fill="#79614c"/><rect x="79" y="195" width="1" height="1" fill="#79614c"/><rect x="20" y="196" width="1" height="1" fill="#79614c"/><rect x="79" y="196" width="1" height="1" fill="#79614c"/><rect x="20" y="197" width="1" height="1" fill="#79614c"/><rect x="80" y="197" width="1" height="1" fill="#79614c"/><rect x="21" y="198" width="1" height="1" fill="#79614c"/><rect x="81" y="198" width="1" height="1" fill="#79614c"/><rect x="21" y="199" width="1" height="1" fill="#79614c"/><rect x="81" y="199" width="1" height="1" fill="#79614c"/><rect x="21" y="200" width="1" height="1" fill="#79614c"/><rect x="82" y="200" width="1" height="1" fill="#79614c"/><rect x="21" y="201" width="1" height="1" fill="#79614c"/><rect x="82" y="201" width="1" height="1" fill="#79614c"/><rect x="21" y="202" width="1" height="1" fill="#79614c"/><rect x="83" y="202" width="1" height="1" fill="#79614c"/><rect x="21" y="203" width="1" height="1" fill="#79614c"/><rect x="84" y="203" width="1" height="1" fill="#79614c"/><rect x="21" y="204" width="1" height="1" fill="#79614c"/><rect x="84" y="204" width="1" height="1" fill="#79614c"/><rect x="21" y="205" width="1" height="1" fill="#79614c"/><rect x="85" y="205" width="1" height="1" fill="#79614c"/><rect x="21" y="206" width="1" height="1" fill="#79614c"/><rect x="85" y="206" width="1" height="1" fill="#79614c"/><rect x="21" y="207" width="1" height="1" fill="#79614c"/><rect x="86" y="207" width="1" height="1" fill="#79614c"/><rect x="21" y="208" width="1" height="1" fill="#79614c"/><rect x="87" y="208" width="1" height="1" fill="#79614c"/><rect x="21" y="209" width="1" height="1" fill="#79614c"/><rect x="88" y="209" width="1" height="1" fill="#79614c"/><rect x="89" y="209" width="1" height="1" fill="#79614c"/><rect x="21" y="210" width="1" height="1" fill="#79614c"/><rect x="90" y="210" width="1" height="1" fill="#79614c"/><rect x="91" y="210" width="1" height="1" fill="#79614c"/><rect x="92" y="210" width="1" height="1" fill="#79614c"/><rect x="21" y="211" width="1" height="1" fill="#79614c"/><rect x="93" y="211" width="1" height="1" fill="#79614c"/><rect x="94" y="211" width="1" height="1" fill="#79614c"/><rect x="95" y="211" width="1" height="1" fill="#79614c"/><rect x="21" y="212" width="1" height="1" fill="#79614c"/><rect x="96" y="212" width="1" height="1" fill="#79614c"/><rect x="97" y="212" width="1" height="1" fill="#79614c"/><rect x="98" y="212" width="1" height="1" fill="#79614c"/><rect x="99" y="212" width="1" height="1" fill="#79614c"/><rect x="21" y="213" width="1" height="1" fill="#79614c"/><rect x="100" y="213" width="1" height="1" fill="#79614c"/><rect x="101" y="213" width="1" height="1" fill="#79614c"/><rect x="102" y="213" width="1" height="1" fill="#79614c"/><rect x="21" y="214" width="1" height="1" fill="#79614c"/><rect x="103" y="214" width="1" height="1" fill="#79614c"/><rect x="104" y="214" width="1" height="1" fill="#79614c"/><rect x="21" y="215" width="1" height="1" fill="#79614c"/><rect x="104" y="215" width="1" height="1" fill="#79614c"/><rect x="21" y="216" width="1" height="1" fill="#79614c"/><rect x="105" y="216" width="1" height="1" fill="#79614c"/><rect x="106" y="216" width="1" height="1" fill="#79614c"/><rect x="107" y="216" width="1" height="1" fill="#79614c"/><rect x="108" y="216" width="1" height="1" fill="#79614c"/><rect x="109" y="216" width="1" height="1" fill="#79614c"/><rect x="110" y="216" width="1" height="1" fill="#79614c"/><rect x="111" y="216" width="1" height="1" fill="#79614c"/><rect x="112" y="216" width="1" height="1" fill="#79614c"/><rect x="113" y="216" width="1" height="1" fill="#79614c"/><rect x="114" y="216" width="1" height="1" fill="#79614c"/><rect x="115" y="216" width="1" height="1" fill="#79614c"/><rect x="116" y="216" width="1" height="1" fill="#79614c"/><rect x="117" y="216" width="1" height="1" fill="#79614c"/><rect x="118" y="216" width="1" height="1" fill="#79614c"/><rect x="119" y="216" width="1" height="1" fill="#79614c"/><rect x="120" y="216" width="1" height="1" fill="#79614c"/><rect x="121" y="216" width="1" height="1" fill="#79614c"/><rect x="122" y="216" width="1" height="1" fill="#79614c"/><rect x="123" y="216" width="1" height="1" fill="#79614c"/><rect x="124" y="216" width="1" height="1" fill="#79614c"/><rect x="125" y="216" width="1" height="1" fill="#79614c"/><rect x="126" y="216" width="1" height="1" fill="#79614c"/><rect x="127" y="216" width="1" height="1" fill="#79614c"/><rect x="128" y="216" width="1" height="1" fill="#79614c"/><rect x="129" y="216" width="1" height="1" fill="#79614c"/><rect x="130" y="216" width="1" height="1" fill="#79614c"/><rect x="131" y="216" width="1" height="1" fill="#79614c"/><rect x="132" y="216" width="1" height="1" fill="#79614c"/><rect x="133" y="216" width="1" height="1" fill="#79614c"/><rect x="134" y="216" width="1" height="1" fill="#79614c"/><rect x="135" y="216" width="1" height="1" fill="#79614c"/><rect x="136" y="216" width="1" height="1" fill="#79614c"/><rect x="137" y="216" width="1" height="1" fill="#79614c"/><rect x="138" y="216" width="1" height="1" fill="#79614c"/><rect x="139" y="216" width="1" height="1" fill="#79614c"/><rect x="140" y="216" width="1" height="1" fill="#79614c"/><rect x="141" y="216" width="1" height="1" fill="#79614c"/><rect x="142" y="216" width="1" height="1" fill="#79614c"/><rect x="143" y="216" width="1" height="1" fill="#79614c"/><rect x="144" y="216" width="1" height="1" fill="#79614c"/><rect x="145" y="216" width="1" height="1" fill="#79614c"/><rect x="146" y="216" width="1" height="1" fill="#79614c"/><rect x="147" y="216" width="1" height="1" fill="#79614c"/><rect x="148" y="216" width="1" height="1" fill="#79614c"/><rect x="149" y="216" width="1" height="1" fill="#79614c"/><rect x="150" y="216" width="1" height="1" fill="#79614c"/><rect x="151" y="216" width="1" height="1" fill="#79614c"/><rect x="152" y="216" width="1" height="1" fill="#79614c"/><rect x="153" y="216" width="1" height="1" fill="#79614c"/><rect x="154" y="216" width="1" height="1" fill="#79614c"/><rect x="155" y="216" width="1" height="1" fill="#79614c"/><rect x="156" y="216" width="1" height="1" fill="#79614c"/><rect x="157" y="216" width="1" height="1" fill="#79614c"/><rect x="158" y="216" width="1" height="1" fill="#79614c"/><rect x="159" y="216" width="1" height="1" fill="#79614c"/><rect x="22" y="217" width="1" height="1" fill="#79614c"/><rect x="92" y="217" width="1" height="1" fill="#665443"/><rect x="93" y="217" width="1" height="1" fill="#665443"/><rect x="94" y="217" width="1" height="1" fill="#665443"/><rect x="95" y="217" width="1" height="1" fill="#665443"/><rect x="96" y="217" width="1" height="1" fill="#665443"/><rect x="97" y="217" width="1" height="1" fill="#665443"/><rect x="98" y="217" width="1" height="1" fill="#665443"/><rect x="99" y="217" width="1" height="1" fill="#665443"/><rect x="100" y="217" width="1" height="1" fill="#665443"/><rect x="101" y="217" width="1" height="1" fill="#665443"/><rect x="102" y="217" width="1" height="1" fill="#665443"/><rect x="103" y="217" width="1" height="1" fill="#665443"/><rect x="104" y="217" width="1" height="1" fill="#665443"/><rect x="105" y="217" width="1" height="1" fill="#665443"/><rect x="106" y="217" width="1" height="1" fill="#665443"/><rect x="107" y="217" width="1" height="1" fill="#665443"/><rect x="108" y="217" width="1" height="1" fill="#665443"/><rect x="109" y="217" width="1" height="1" fill="#665443"/><rect x="110" y="217" width="1" height="1" fill="#665443"/><rect x="111" y="217" width="1" height="1" fill="#665443"/><rect x="112" y="217" width="1" height="1" fill="#665443"/><rect x="113" y="217" width="1" height="1" fill="#665443"/><rect x="114" y="217" width="1" height="1" fill="#665443"/><rect x="115" y="217" width="1" height="1" fill="#665443"/><rect x="116" y="217" width="1" height="1" fill="#665443"/><rect x="117" y="217" width="1" height="1" fill="#665443"/><rect x="118" y="217" width="1" height="1" fill="#665443"/><rect x="119" y="217" width="1" height="1" fill="#665443"/><rect x="120" y="217" width="1" height="1" fill="#665443"/><rect x="121" y="217" width="1" height="1" fill="#665443"/><rect x="122" y="217" width="1" height="1" fill="#665443"/><rect x="150" y="217" width="1" height="1" fill="#665443"/><rect x="151" y="217" width="1" height="1" fill="#665443"/><rect x="152" y="217" width="1" height="1" fill="#665443"/><rect x="153" y="217" width="1" height="1" fill="#665443"/><rect x="154" y="217" width="1" height="1" fill="#665443"/><rect x="155" y="217" width="1" height="1" fill="#665443"/><rect x="156" y="217" width="1" height="1" fill="#665443"/><rect x="157" y="217" width="1" height="1" fill="#665443"/><rect x="158" y="217" width="1" height="1" fill="#665443"/><rect x="159" y="217" width="1" height="1" fill="#79614c"/><rect x="22" y="218" width="1" height="1" fill="#79614c"/><rect x="82" y="218" width="1" height="1" fill="#665443"/><rect x="83" y="218" width="1" height="1" fill="#665443"/><rect x="84" y="218" width="1" height="1" fill="#665443"/><rect x="85" y="218" width="1" height="1" fill="#665443"/><rect x="86" y="218" width="1" height="1" fill="#665443"/><rect x="87" y="218" width="1" height="1" fill="#665443"/><rect x="88" y="218" width="1" height="1" fill="#665443"/><rect x="89" y="218" width="1" height="1" fill="#665443"/><rect x="90" y="218" width="1" height="1" fill="#665443"/><rect x="91" y="218" width="1" height="1" fill="#665443"/><rect x="123" y="218" width="1" height="1" fill="#665443"/><rect x="124" y="218" width="1" height="1" fill="#665443"/><rect x="125" y="218" width="1" height="1" fill="#665443"/><rect x="126" y="218" width="1" height="1" fill="#665443"/><rect x="127" y="218" width="1" height="1" fill="#665443"/><rect x="128" y="218" width="1" height="1" fill="#665443"/><rect x="129" y="218" width="1" height="1" fill="#665443"/><rect x="130" y="218" width="1" height="1" fill="#665443"/><rect x="131" y="218" width="1" height="1" fill="#665443"/><rect x="132" y="218" width="1" height="1" fill="#665443"/><rect x="133" y="218" width="1" height="1" fill="#665443"/><rect x="134" y="218" width="1" height="1" fill="#665443"/><rect x="135" y="218" width="1" height="1" fill="#665443"/><rect x="136" y="218" width="1" height="1" fill="#665443"/><rect x="137" y="218" width="1" height="1" fill="#665443"/><rect x="138" y="218" width="1" height="1" fill="#665443"/><rect x="139" y="218" width="1" height="1" fill="#665443"/><rect x="140" y="218" width="1" height="1" fill="#665443"/><rect x="141" y="218" width="1" height="1" fill="#665443"/><rect x="142" y="218" width="1" height="1" fill="#665443"/><rect x="143" y="218" width="1" height="1" fill="#665443"/><rect x="144" y="218" width="1" height="1" fill="#665443"/><rect x="145" y="218" width="1" height="1" fill="#665443"/><rect x="146" y="218" width="1" height="1" fill="#665443"/><rect x="147" y="218" width="1" height="1" fill="#665443"/><rect x="148" y="218" width="1" height="1" fill="#665443"/><rect x="149" y="218" width="1" height="1" fill="#665443"/><rect x="158" y="218" width="1" height="1" fill="#665443"/><rect x="159" y="218" width="1" height="1" fill="#79614c"/><rect x="22" y="219" width="1" height="1" fill="#79614c"/><rect x="82" y="219" width="1" height="1" fill="#665443"/><rect x="158" y="219" width="1" height="1" fill="#665443"/><rect x="159" y="219" width="1" height="1" fill="#79614c"/><rect x="22" y="220" width="1" height="1" fill="#79614c"/><rect x="46" y="220" width="1" height="1" fill="#665443"/><rect x="47" y="220" width="1" height="1" fill="#665443"/><rect x="48" y="220" width="1" height="1" fill="#665443"/><rect x="49" y="220" width="1" height="1" fill="#665443"/><rect x="50" y="220" width="1" height="1" fill="#665443"/><rect x="51" y="220" width="1" height="1" fill="#665443"/><rect x="52" y="220" width="1" height="1" fill="#665443"/><rect x="53" y="220" width="1" height="1" fill="#665443"/><rect x="54" y="220" width="1" height="1" fill="#665443"/><rect x="55" y="220" width="1" height="1" fill="#665443"/><rect x="56" y="220" width="1" height="1" fill="#665443"/><rect x="57" y="220" width="1" height="1" fill="#665443"/><rect x="58" y="220" width="1" height="1" fill="#665443"/><rect x="59" y="220" width="1" height="1" fill="#665443"/><rect x="60" y="220" width="1" height="1" fill="#665443"/><rect x="61" y="220" width="1" height="1" fill="#665443"/><rect x="62" y="220" width="1" height="1" fill="#665443"/><rect x="63" y="220" width="1" height="1" fill="#665443"/><rect x="64" y="220" width="1" height="1" fill="#665443"/><rect x="65" y="220" width="1" height="1" fill="#665443"/><rect x="66" y="220" width="1" height="1" fill="#665443"/><rect x="67" y="220" width="1" height="1" fill="#665443"/><rect x="68" y="220" width="1" height="1" fill="#665443"/><rect x="69" y="220" width="1" height="1" fill="#665443"/><rect x="70" y="220" width="1" height="1" fill="#665443"/><rect x="71" y="220" width="1" height="1" fill="#665443"/><rect x="72" y="220" width="1" height="1" fill="#665443"/><rect x="82" y="220" width="1" height="1" fill="#665443"/><rect x="158" y="220" width="1" height="1" fill="#665443"/><rect x="159" y="220" width="1" height="1" fill="#79614c"/><rect x="22" y="221" width="1" height="1" fill="#79614c"/><rect x="43" y="221" width="1" height="1" fill="#665443"/><rect x="44" y="221" width="1" height="1" fill="#665443"/><rect x="45" y="221" width="1" height="1" fill="#665443"/><rect x="73" y="221" width="1" height="1" fill="#665443"/><rect x="74" y="221" width="1" height="1" fill="#665443"/><rect x="75" y="221" width="1" height="1" fill="#665443"/><rect x="76" y="221" width="1" height="1" fill="#665443"/><rect x="77" y="221" width="1" height="1" fill="#665443"/><rect x="78" y="221" width="1" height="1" fill="#665443"/><rect x="79" y="221" width="1" height="1" fill="#665443"/><rect x="80" y="221" width="1" height="1" fill="#665443"/><rect x="81" y="221" width="1" height="1" fill="#665443"/><rect x="158" y="221" width="1" height="1" fill="#665443"/><rect x="159" y="221" width="1" height="1" fill="#79614c"/><rect x="22" y="222" width="1" height="1" fill="#79614c"/><rect x="40" y="222" width="1" height="1" fill="#665443"/><rect x="41" y="222" width="1" height="1" fill="#665443"/><rect x="42" y="222" width="1" height="1" fill="#665443"/><rect x="158" y="222" width="1" height="1" fill="#665443"/><rect x="159" y="222" width="1" height="1" fill="#79614c"/><rect x="22" y="223" width="1" height="1" fill="#79614c"/><rect x="37" y="223" width="1" height="1" fill="#665443"/><rect x="38" y="223" width="1" height="1" fill="#665443"/><rect x="39" y="223" width="1" height="1" fill="#665443"/><rect x="158" y="223" width="1" height="1" fill="#665443"/><rect x="159" y="223" width="1" height="1" fill="#79614c"/><rect x="22" y="224" width="1" height="1" fill="#79614c"/><rect x="34" y="224" width="1" height="1" fill="#665443"/><rect x="35" y="224" width="1" height="1" fill="#665443"/><rect x="36" y="224" width="1" height="1" fill="#665443"/><rect x="158" y="224" width="1" height="1" fill="#665443"/><rect x="159" y="224" width="1" height="1" fill="#79614c"/><rect x="22" y="225" width="1" height="1" fill="#79614c"/><rect x="33" y="225" width="1" height="1" fill="#665443"/><rect x="158" y="225" width="1" height="1" fill="#665443"/><rect x="159" y="225" width="1" height="1" fill="#79614c"/><rect x="22" y="226" width="1" height="1" fill="#79614c"/><rect x="32" y="226" width="1" height="1" fill="#665443"/><rect x="158" y="226" width="1" height="1" fill="#665443"/><rect x="159" y="226" width="1" height="1" fill="#79614c"/><rect x="22" y="227" width="1" height="1" fill="#79614c"/><rect x="31" y="227" width="1" height="1" fill="#665443"/><rect x="158" y="227" width="1" height="1" fill="#665443"/><rect x="159" y="227" width="1" height="1" fill="#79614c"/><rect x="22" y="228" width="1" height="1" fill="#79614c"/><rect x="31" y="228" width="1" height="1" fill="#665443"/><rect x="158" y="228" width="1" height="1" fill="#665443"/><rect x="159" y="228" width="1" height="1" fill="#79614c"/><rect x="22" y="229" width="1" height="1" fill="#79614c"/><rect x="30" y="229" width="1" height="1" fill="#665443"/><rect x="158" y="229" width="1" height="1" fill="#665443"/><rect x="159" y="229" width="1" height="1" fill="#79614c"/><rect x="22" y="230" width="1" height="1" fill="#79614c"/><rect x="29" y="230" width="1" height="1" fill="#665443"/><rect x="158" y="230" width="1" height="1" fill="#665443"/><rect x="159" y="230" width="1" height="1" fill="#79614c"/><rect x="22" y="231" width="1" height="1" fill="#79614c"/><rect x="29" y="231" width="1" height="1" fill="#665443"/><rect x="158" y="231" width="1" height="1" fill="#665443"/><rect x="159" y="231" width="1" height="1" fill="#79614c"/><rect x="22" y="232" width="1" height="1" fill="#79614c"/><rect x="28" y="232" width="1" height="1" fill="#665443"/><rect x="158" y="232" width="1" height="1" fill="#665443"/><rect x="159" y="232" width="1" height="1" fill="#79614c"/><rect x="22" y="233" width="1" height="1" fill="#79614c"/><rect x="28" y="233" width="1" height="1" fill="#665443"/><rect x="158" y="233" width="1" height="1" fill="#665443"/><rect x="159" y="233" width="1" height="1" fill="#79614c"/><rect x="22" y="234" width="1" height="1" fill="#79614c"/><rect x="27" y="234" width="1" height="1" fill="#665443"/><rect x="158" y="234" width="1" height="1" fill="#665443"/><rect x="159" y="234" width="1" height="1" fill="#79614c"/><rect x="22" y="235" width="1" height="1" fill="#79614c"/><rect x="26" y="235" width="1" height="1" fill="#665443"/><rect x="158" y="235" width="1" height="1" fill="#665443"/><rect x="159" y="235" width="1" height="1" fill="#79614c"/><rect x="23" y="236" width="1" height="1" fill="#79614c"/><rect x="26" y="236" width="1" height="1" fill="#665443"/><rect x="158" y="236" width="1" height="1" fill="#665443"/><rect x="159" y="236" width="1" height="1" fill="#79614c"/><rect x="23" y="237" width="1" height="1" fill="#79614c"/><rect x="25" y="237" width="1" height="1" fill="#665443"/><rect x="158" y="237" width="1" height="1" fill="#665443"/><rect x="159" y="237" width="1" height="1" fill="#79614c"/><rect x="23" y="238" width="1" height="1" fill="#79614c"/><rect x="24" y="238" width="1" height="1" fill="#665443"/><rect x="158" y="238" width="1" height="1" fill="#665443"/><rect x="159" y="238" width="1" height="1" fill="#79614c"/><rect x="23" y="239" width="1" height="1" fill="#79614c"/><rect x="24" y="239" width="1" height="1" fill="#665443"/><rect x="158" y="239" width="1" height="1" fill="#665443"/><rect x="159" y="239" width="1" height="1" fill="#79614c"/><text x="12" y="22" fill="#fff" font-size="12">Tutorial 5</text></svg>