<svg xmlns="http://www.w3.org/2000/svg" viewBox="0 0 176 64"><title>AK-47</title><g stroke="#18291f" stroke-width="2.5" stroke-linejoin="round" stroke-linecap="round"><path fill="#c18c56" d="m8 26 33-5 18 4v10l-20 3-22 14H8Z"/><path fill="#91aaab" d="M52 20h64v17H52zm58 4h55v7h-55z"/><path fill="#c18c56" d="M108 22h28v15h-28zM62 36h14l-5 19H58Z"/><path fill="#91aaab" d="M87 35h17q0 11 10 20l-13 6q-14-11-14-26Z"/><path fill="none" d="M109 38q11 0 11 7M158 17v8M48 26h8"/><path fill="none" stroke="#eaf0db" d="M59 24h39M92 39q2 10 11 16"/></g></svg>
