<svg xmlns="http://www.w3.org/2000/svg" viewBox="0 0 176 64"><title>Fragmentation grenade</title><g stroke="#18291f" stroke-width="2.5" stroke-linejoin="round" stroke-linecap="round"><path fill="none" stroke="#d9c58e" d="M103 14h14a8 8 0 1 1 0 16h-7"/><path fill="#91aaab" d="m77 14 14-5 15 27-6 3-17-20h-6Z"/><path fill="#a3ac69" d="M73 20h17c13 4 18 16 15 26-3 10-33 10-36 0-4-11-1-20 4-26Z"/><path fill="none" d="M76 22v29m13-29v29M69 32h34M68 42h37"/><path fill="#c9ac57" d="M75 14h17v9H75Z"/></g></svg>
