<svg xmlns="http://www.w3.org/2000/svg" viewBox="0 0 176 64"><title>Sniper rifle</title><g stroke="#18291f" stroke-width="2.5" stroke-linejoin="round" stroke-linecap="round"><path fill="#c18c56" d="M8 32h29l12-9h56v14H72l-9 18H51l3-15H40L14 50H8Z"/><path fill="#91aaab" d="M47 24h76v9H47zm76 0h43v6h-43z"/><path fill="#91aaab" d="M54 6h40v13H54zm40 2h18v9H94Z"/><path fill="#e8d9af" d="M47 4h10v17H47zm59 1h10v16h-10Z"/><path fill="none" d="M66 19v6m28-6v6M77 38q12 11 17-4M140 31l-5 18"/><path fill="none" stroke="#edcc91" d="M13 36h23"/></g></svg>
